<svg xmlns="http://www.w3.org/2000/svg" viewBox="0 0 1211.17 166">
    <path d="M456.81 163.29l5.9 3.05h-3.12l-3.17-1.64-4.95 1.64h-4.46l9.24-3.05c.18-.08.38-.08.56 0zM1210.99 0c.05.11.1.23.15.35v6.94l-10.62 2c-.23.01-14.88-.7-15.1-.7 0 .33 4.78 19 4.63 19.32l.35 50.45 1.54 2.82 19.2-8.68v6.34l-16.48 7.43c5.64 10.76 11.35 22.65 16.48 33.79v13.85c-8.21-18.44-15.5-33.5-21.74-45.29l-12.05 5.42c6.35 13.88 10.31 31.02 12.71 48.75l21.08-8.61v3.14l-7.92 3.24 3.13 21.43 4.79-4.86v4.13l-5.02 5.08h-3.97c-.02-.2 2.79-2.86 2.96-3.05l-3.32-22.23-11.31 4.62c.87 6.87 1.49 13.81 1.95 20.66h-5.83c-.41-6.08-.96-12.23-1.69-18.32l-28.83 11.78 1.93 6.54h-1.53l-1.45-4.95-2.76 4.95h-2.82l3.39-5.96-15.12.89-10.45 4.83.11.24h-7.63l.55-.25-7.44-18.25-8.68 3.58 8.06 14.92h-3.27l-6.83-12.65c-3.54 8.19-3.36 7.3-10.24 12.65h-2.15c7.74-6.12 7.59-4.77 11.63-14.11-.02-.05-.25-.44-.22-.49l-5.42-4.43c-.27.01-7.47 3.08-7.75 2.89l-3.98 16.14h-1.48l.75-3.06c-.29-.14-14.34-4.26-14.58-4.49l-3.9-3.21-5.89 4.44 5.43 6.32h-3.84l-3.29-3.83-1.83 3.83h-1.54c.01-.07 2.41-4.95 2.37-5.02-9.34-10.88-19.22-22.42-20.16-23.59-1.34-2.09-4.81-1.75-7.46-1.94 1.3 1.71 22.03 26.04 22.03 26.04.73.49-1.41 3.95-1.47 4.51h-1.58l1.68-3.9-13.06-14.85c.06.29 5.17 13.04 5.13 13.33 0 .1-.02.2-.06.29l-2.45 5.13h-1.61l2.62-5.48-4.24-10.6c-.24 4.9-2.31 10.7-4.64 16.08h-3.1c.75-1.68 1.65-3.75 2.47-5.99-.11 0-26.47 3.33-26.57 3.31-.52.19-3.06-3.69-3.39-3.95l-12.47 4.85 1.03 1.78h-1.68l-.72-1.24-3.2 1.24h-3.98l6.52-2.53-3.67-6.33-14.13 5.24 1.31 3.62h-1.57l-1.14-3.07-8.28 3.07h-4.31l27.31-10.14-7.76-13.43c-10.4 3.5-21.54 7.24-29.22 9.81l4.51 13.76h-1.52l-4.39-13.29-4.96 1.66 9.06 11.63h-7.26l-7.29-9.37-6.32 3.44 6.12 5.93h-2.08l-5.36-5.17-8.38 4.56.26.61h-7.38l21.34-11.61-12.5-16.04c-6.65 12.5-19.27 18.51-23.64 20.27l4.2 7.38h-3.3l-.56-.98-2.07.98h-3.38l4.73-2.24-2.26-3.96-11.8 5.31.45.89h-5.85l2.12-.96-4.14-8.17-11.33 2.91 2.66 6.22h-1.53l-2.37-5.59-8.51 5.59H849l10.56-6.96c.06-.17-22.72-22.71-22.76-22.84a333 333 0 01-4.63 4.26c2.88 5.82 7.42 14.89 12.76 25.54h-9.02c-3.83-7.52-7.2-14.14-9.78-19.2l-10.28 14.99 2.72 4.21h-1.84l-1.88-2.86-1.94 2.86h-3.41l15.14-22.09-.42-.81-13.42-.75-9.8 19.59 2.36 4.06h-3.41c-.19-.32-.37-.64-.56-.96l-.48.96h-1.55l1.22-2.43-15.2-26.2-7.86 20.54 10.09 8.09h-5.23l.15-.36-6.09-4.91-2.01 5.27h-3.09c.99-2.59 1.96-5.14 2.92-7.64l-7.58-3.93-4.35 11.57h-3.06l4.88-12.96-9.12-4.72-6.99 17.68h-1.57l1.26-3.26-28.85-7.19-1.01 5.92 16.67 4.53h-5.72l-11.22-3.05-.52 3.05h-1.38l.65-3.38-13.75-3.79c.06 2.63.12 5.08.17 7.17h-2.89c-.06-2.31-.13-5.04-.19-7.97l-12.67-3.45-2.55 11.42h-1.48l2.62-11.78-7.85-2.17-1.42 12.05 6.65 1.9h-10.63c-3.13-.87-6.26-1.73-9.37-2.57-.15.85-.27 1.71-.39 2.57h-2.93c.15-1.11.32-2.22.53-3.32-2.98-.79-5.93-1.56-8.86-2.31l-2.03 5.63h-3.02l2.29-6.34c-3.17-.79-6.21-1.56-9.26-2.26-.81 2.97-1.67 5.84-2.53 8.6h-3.03c.79-2.51 1.58-5.12 2.34-7.82l-22.76 6.05c.08.58.14 1.18.2 1.77h-2.95c-.03-.36-.06-.72-.1-1.08-2.71 1.43-12.37 1.08-15.4 1.08l1.6-.44 2.03-16.62-13.74-2.71 6.16 19.77h-1.42l-6.27-20.12-.59-.12c-.35.49-.64 2.68-1.55 2.49l-15.7-1.72-3.04 11.64 9.92 7.83h-2.38l-7.95-6.3-1.63 6.3h-1.48l1.88-7.27-17.4-13.8-.84 21.07h-1.44l.88-21.91-3.53-.39-5.38 22.3h-1.5l5.47-22.54-7.24-.78-.42-.07-.69 1.55-2.12 21.84h-1.43l1.65-17.14-6.94 17.14h-3.12l4.36-10.77-16.79-7.83-2.79 13.94 9.91 4.66h-6.73l-3.76-1.75-.35 1.75h-1.47l.49-2.43-4.73-2.22c.63 1.4 1.32 2.99 2.02 4.65H492l-1.83-4.06-1.45 3.27 1.98.79c-2.84 1.43-19.68-6.68-22.47-7.57-.28-.1-.45-.39-.45-.68l.54-19.84-11.27 3.21 3.85 17.23 16.95 7.65h-4.34l.15-.34c-19.6-8.98-12.16-2.64-17.95-24.13l-12.01 3.52 1.36 20.62c.14.11.27.22.41.33-1.32-.03-5.45.3-6.47-.78l-.61.78h-1.74l1.04-1.32c-3.38-1.25-6.65-2.81-9.83-4.51l-2.88 5.83h-3.25l3.52-7.11c-3.12-1.62-6.66-3.47-10.38-5.42l-.32.17-6.05 12.36h-1.61l5.55-11.3-16.83 8.74.06 2.56h-2.92l-.02-1.03-1.98 1.03h-3.12l5.07-2.63-.3-13.1-19.95 13.11 5.06 2.62h-3.17l-3.29-1.7-2.59 1.7h-2.57l3.76-2.47-22.41-11.59-11.29 9.52 9.43 4.54h-14.11l.21-.32-9.27-4.43.32 4.75h-7.27l-3.53-2.16-1.32 2.16h-1.63l1.73-2.87-7.39-4.5-6.43 7.37h-1.88l7.09-8.13-17.07-10.39c-.75.67-1.56 1.27-2.42 1.81 2.55 4.72 5.66 10.6 8.74 16.71h-3.31a716.86 716.86 0 00-8.13-15.51c-1.38.57-2.81.96-4.28 1.18l.12.06c.45 4.23.97 9.17 1.47 14.27h-2.8c-.1-1-.19-1.99-.29-2.97l-1.46 2.97h-1.6l2.78-5.64c-.2-1.95-.41-3.84-.6-5.63l-5.29 11.27h-1.82l6.57-14.02h.06v-.01c-2.4-.01-4.77-.48-6.99-1.4l-6.23 13.18 2.64 2.25h-2.21l-1.1-.94-.44.94h-2.87l7.85-16.64c-.85-.52-1.67-1.11-2.43-1.76l-13 18.4h-1.89l13.74-19.45a16.46 16.46 0 01-1.5-1.73l-32.85 21.18h-5.31l1.18-.76-8.76-10.67-6.47 6.59 3.45 4.84h-1.74l-2.61-3.68-1.7 3.68h-1.56l2.28-4.9-8.49-8.04-5.02.82 2.07 12.12h-2.88l-2-11.69-2.1.33-5.42 11.36h-1.57l5.26-11.03-11.7 1.91.08.02-2.95 9.1h-1.51l2.87-8.9-11.08 1.8 1.2 7.1h-1.45l-1.15-6.84-12.58 2.03-1.62 4.33 1.39.48h-8.76l-3.15-1.09-.49 1.09h-3.21l.91-2.04-6.79-2.36-2.09 4.4h-3.14l2.54-5.35-1.97-.72c-1.07 2.04-2.11 4.07-3.13 6.07h-9.76l-4.81-2.03-1.28 2.03h-1.73c.23-.25 2.14-3.68 2.5-3.64a.75.75 0 01.49.02l8.18 3.46c12.88-24.76 24.88-48.96 43.15-56.77 5.56-3.51 13.37-6.03 16.34-12.14-5.79-3.2-13.06-4.99-13.65-12.44a76.472 76.472 0 01-17.35 21.59v.01c-6.83 6.03-25.52 34.22-42.04 59.91H81.65c3.06-1.27 6.16-2.1 9.26-2.46 2.82-4.35 5.69-8.79 8.55-13.18a55.614 55.614 0 01-19.32-23.75l-54.39 26.54c-.37 5.07-.53 9.27-.5 12.85h-2.86c-.03-3.25.11-6.98.4-11.34L-.38 166.31v-6.39l23.62-11.51c-.24-19.85-4.27-25.31-15.09-36.93l-8.51 2.7c-.09-.1 0-2.89-.03-3l6.16-1.96c-2.38-2.2-4.62-4.16-6.16-5.48v-3.76c1.05.86 5.11 4.25 9.3 8.24 0 0 55.29-17.63 56.02-17.91 8.38-5.27 5.94-8.69 10.33-17.46L-.39 57.96v-2.94l27.29 5.32 1.12-7.1L.6 48.01l-.99 1.12v-2.74l.5.1 5.49-6.15-5.99-7.07v-2.21l6.96 8.21L25.94 17.6-.39 4.79V0H2.9l5.4 2.62L10.4 0h1.88L9.62 3.32l20.28 9.82L41.66 0h1.89l-12.3 13.76 20.72 10.08L62.5 3.21 53.35 0c1.43.08 9.37-.36 10.46.63l.32-.63h1.61l-.56 1.1 28.16 9.89L79.67 0h2.27l15.48 12.45.51.18L102.37 0h1.52l-4.62 13.08 8.48 2.98L113.06 0h1.54l-5.47 16.58 20.61 7.24L138.1 5.3 117.85 0h5.84l15 3.89L140.44 0H142l-1.91 4.24 21.62 5.62.4-.94L156.87 0h3.31l3.31 5.63 2.4-5.62h3.15l-3.7 8.66 1.76 3.04L177 0h3.81l-12.17 14.38 7.22 12.27c5.77-9.36 12.38-18.04 19.84-24.24L193.89 0h3.8l.32.42c.16-.13.33-.28.5-.42h8.87c-.09.07-.19.16-.28.23l18.64 7.29L237.34 0h10.62l-.92.6 8.83 12.07 4.7-3.78L253.5 0h1.94l6.36 7.98 5.8-4.67L265.14 0h1.79l1.78 2.42 3-2.41h2.25l-4.49 3.6 2.92 3.92 9.05-7.52h5.54c1.68 2.52 5.76 2.5 7.45 0h2.82c-.3.71-.72 1.38-1.24 1.96l8.71 13.31 9.07-6.59c-1.28-.72-13.08-9.04-14.36-8.69h10.24l20.36 6.01L332.89 0h6.36l-3.62 7.65 12.68 3.74 3-2.42L343.74 0h1.85l6.8 8.06L362.32 0h4.66l-15.34 12.39 6.93 2.03 16.3-12.63L373.43 0h3.69l.02.03.04-.03h2.3L378 1.14l5.06 6.2 3.88-2.92L383.57 0h1.87l2.73 3.57L392.98 0h2.42l-11.43 8.45 14.33 17.7 6.94 2.03 8.95-11.37c.21-.28 6.54-5.81 6.77-6.05L406.76 0h2.44l12.9 9.75 8.37-7.46-.49-2.29h1.47l.25 1.19L433.01 0h7.43l13.86 19.8 5.32-1.71L447.1 0h1.76l12.2 17.64 4.13-1.33c-4.12-6.64-7.46-11.95-10.3-16.31h3.39c.35.55.71 1.1 1.08 1.68L460.81 0h1.9l-2.53 2.94c2.29 3.59 4.86 7.7 7.82 12.48l6.66-2.15L466.06 0h1.71l8.3 12.86 6.29-2.03c-3.28-6.29-1.94-4.17 2.56-8.56L482.5 0h4.23l7.45 6.98 5.85-1.88-3.86-5.1h1.84l3.46 4.63 5.23-1.66L509.78 0h4.11l-5.47 5.32c-.16.14-.35.26-.56.33l-11.29 3.62 11.44 10.7 11.64-3.36L514.53 0h1.54l4.97 16.24c3.04-.88 5.5-1.57 7.17-2.03L520.28 0h1.64l7.72 13.82c.91-.23 1.89-.44 2.77-.77L528.1 0h3.04l.17.51.49-.51h2.01l-1.98 2.12 3.27 9.85c3.39-1.55 6.44-3.74 8.98-6.46 0-.09 2.4-2.33 5.74-5.51 10.99-.12 13.2 3.98 27.36 8.72L583.02 0h3.43l-.56.84 3.42 12.68c5.33 2.11 10.78 4.21 15.79 6.16l4.64-14.79L601.95 0h2.71l5.53 3.45L611.27 0h1.5l-6.31 20.18c5.04 1.97 9.56 3.69 13 5.01l7.27-13.84c-4.36-3.18-7.89-7.41-11.5-11.35h3.86c3.71 4.17 7.52 8.67 13.58 11.57l.08-4.57c-.56-.39-8.25-.69-7.68-2.11.33-.55.48-5.06 1.59-4.88l.66-.01h12.62c-.17.45-.29 1.36-.96 1.31l-4.64-.01-.08 4.42 11.39 2.03c-.9-2.58-2.01-5.09-3.32-7.49l-.55-.26h3.64c.68 1.32 1.33 2.66 1.89 4.03l.86-4.03h2.92l-1.07 5.05c6.01-2.3 12.41-3.38 18.84-3.2l.11-1.85h1.48l-.12 1.91c1.34.09 2.71.27 4.11.5l.12-2.41h1.4l-.12 2.68c5.31 1.1 10.35 3.26 14.82 6.35.22-1.81.58-4.39 1.01-7.49L680.45 0c.49.04 11.36-.11 11.41.13.01-.04.01-.09.02-.13h2.89c-1.01 7.29-1.32 9.45-1.9 13.63 6.32-1.52 12.48-2.91 18.04-3.92V2.89L702.49 0h4.44l3.98 1.37L710.9 0h2.89l.04 9.19c2.7-.46 5.22-.85 7.52-1.11l.08-8.08h1.41l-.07 7.92c4.02-.5 8.82-.46 12.77-2.28L734.32 0h1.45l1.13 5.16L750.89 0h4.14l-16.3 6c17.02-2.53 34.16-4.25 51.35-4.97.05-.28.06-.65.06-1.03h2.85c-.02.32-.04.63-.05.92 4.9-.15 10.08-.23 15.55-.23l-.11-.69h1.48l.11.69c7.71.02 16.03.26 24.97.71.25-.42.53-.9.83-1.4h3.34l-1.04 1.73 14 1.49L854.44 0h1.81l-2.5 3.41 12.93 1.38L870.56 0h5.45l-2 2.47 3.04.31L880.71 0h4.81c-.39.17-7.67 6.21-7.98 5.72-.14.03-5.4-.57-5.55-.57l-2.03 2.66 8.55 13.16 7.27-11.46-1.69-6.25L888.4 0h12.63l-13.05 9.85-6.17 10.55 1.56-.63 2.87-5.93c.15-.41 18.04-13.54 18.3-13.84h2.38l-19.46 14.62-2.1 4.36L932.57 0h15.41l-10.03 4.05 2.61 3.04 7.22-5.96c.19-.15.41-.25.65-.3C951.32-.39 966.2.06 969.49 0l10.24 26.06a64.739 64.739 0 0120.76-5.76c-6.54-8.52-5.71-7.23-15.46-20.31h3.61c9.56 12.81 7.69 10.11 15.03 19.68l18.24-1.34c-1.3-4.78-2.76-10.14-4.28-15.62L1012.17 0h3.23c.01 0 1.74.88 1.75.87l-.24-.86h1.47c1.76 6.44 3.47 12.65 4.98 18.14 1.96-.93 10.57-5.07 18.55-9.46l-2.28-8.68h1.48l2.1 8.01c5.16-2.9 9.93-5.86 12.18-8.01h3.55c-1.75 2.93-4.9 4.78-7.72 6.6l1.82 2.72 20.02-6.32c-.21-1.01-.45-2.01-.65-3.01h2.91c.19.85.38 1.7.58 2.54l8.11 1.7.66-4.24h1.46l-.72 4.54 18.41 3.88L1091.8 0h2.53l9.33 6.55c-.75-2.17-1.51-4.36-2.27-6.55h8.96l28.27 35.1c4.02-7.35 7.17-15.15 9.39-23.24-.38-.12-21.2-3.33-21.54-3.55-.94-.09 1.08-7.48.98-7.95l-2.5-.36c6.01-.56 19.13 1.08 25.12 2.15.11-.72.21-1.44.31-2.16h1.45c-.45 3.45-1.09 6.86-1.95 10.23l14.94-3.92-.76-6.3h1.45l.72 5.97 6.14-1.6-.85-4.37h1.52l.78 3.99 7.14-1.87-.52-2.12h2.92l.22.99 2.75-.98h4.37l-6.78 2.42 1.16 4.76 15.27.68 10.25-1.93c-.99-1.94-1.89-3.92-2.71-5.94h3.1zm-62.65 10.45c.56-2.2 1.07-4.48 1.48-6.84L1128.86.57l-1.18 6.53 20.66 3.35zm-37.22-.35c12.24 31.85 13.94 47.94 21.53 57.7h.01c-1.07-6.26-2.46-19.33 2.66-27.65l-24.2-30.05zm10.56 78.75l-2.12-12.73-11.64 2.55 2.03 16.31 6.45 2.91 2.85-8.47c.16-.78 1.91-.45 2.43-.57zm-1.25 1.52l-2.58 7.68 19.08-2.76-1.08-5.86-15.42.94zm.27-15.99l8.6-1.9c-1.72-2.17-7.74-6.36-10.14-7.88l1.54 9.78zm3.74-7.9c-1.52-3.75-1.78-5.33-5.17-14.96l-9.29 5.08 14.46 9.88zm-15.52-8.83a58.617 58.617 0 00-2.92 11.52l9.75-6.9-6.83-4.62zm-3.27 13.49c-2.39 14.88-1.29 17.94-1.66 41.8 2.49-.3 5.06-.65 7.72-1.08l4.22-12.6-6.95-3.13a.663.663 0 01-.29-.23c-.31-.25-2.16-17.38-2.29-17.72-1.02-1.19 12.73-3.2 12.95-3.55l-1.85-11.15-.5-.33-11.35 7.99zm7.63 40.49c8.54-1.36 17.25-3.46 25.48-6.31l-1.59-8.62-19.84 2.89-4.05 12.04zm26.85-6.77c6.9-2.35 13.75-5.04 19.93-7.65-4.29-1.96-14.5-6.34-22.73-7.69l2.8 15.34zm.61 2.78l4.97 16.92 18.52-5.64 6.08-23.1c-8.19 3.71-18.85 8.17-29.57 11.82zm29.73-15.05c-1.85-4.26-6.09-7.34-10.72-7.77a73.616 73.616 0 01-24.9-8.49l2.14 11.67c9.55 1.45 21.4 6.83 24.85 8.45 3.12-1.34 6.04-2.64 8.63-3.86zm-37.26-17.27c-.87-.54-1.68-1.12-2.47-1.72l-9.82 2.18 2.15 12.96 12.45-.76-2.31-12.66zm-52.7-57.94c9.44 24.55 23.46 34.68 27.2 37.06 2.63-1.42 7.92-4.27 10.54-5.69-3.32-9.71-8.72-25.27-13.16-38.13l-24.58 6.76zm-.71 96.72l-2.02-6.98-.45-.1-6.55 6.48c2.92.28 5.9.51 9.02.6zm-7.11 2.46l9.05 15.38 2.91-.67-4.06-14.26c-2.7-.07-5.32-.24-7.9-.45zm-9.8 7.85l4.93-4.05c-.01-.08-.84-4.29-.83-4.37-2.15-.23-4.29-.51-6.42-.85l-1.67 2.03 3.99 7.24zm-4.99-6.11l-14.71 17.55 2.91 2.4 15.66-12.89-3.86-7.06zm11-4.97l6.78-6.7-11.38-2.75-5.84 8c3.46.58 6.92 1.07 10.44 1.45zm-33.82-17.05c-.29-1.7 7.33.46 7.95.23l2.82-16.4-11.15-14.75c-3.07-.35-6.08-.38-8.88-.49l-.32 2.55c.3.42 13.42 2.64 12.43 3.87-.31.47-4.35 24.91-5.05 25.13-.16.11-.38.13-.57.11l-10.02-2.8-1.14 9.39c12.15 3.37 9.74-.71 11.59 12.15.85-.29 1.71-.58 2.57-.85l-.23-18.14zm-134.05 29.09l-19.58-7.64.27 17.04c.04.31-.19.86-.26 1.15l1.2 2.03 18.37-12.58zm-17.67 13.85l5.44 9.53 17.98-11.76-8.32-8.11-15.1 10.34zm19.11-14.87l3.04-2.03-12.61-16.15-11.63-.28.16 10.25 21.04 8.21zm57.82-97.26l-36.43-2.48c-3.15 2.49-10.63 8.64-12.88 11.89l20.41 14.96c.35-.11 16.42-9.22 16.81-9.2l11.48-.85c1.65-1.9 3.41-3.71 5.27-5.41l-4.66-8.91zm5.77 7.94c3-2.6 6.25-4.91 9.7-6.89l-13.79-.92 4.09 7.81zm-21.65 35.11a74.532 74.532 0 018.16-18.92L947.86 44l-22.7 12.5 19.25 13.64zm-20.3-12.65l-1.33 16.41 19.93-3.22-18.6-13.19zm29.29-7.62c1.52-2.41 3.19-4.73 4.99-6.94l-9.04.68 4.05 6.26zM910.03 37.6l-4.39 5.07 18.28 12.9 6.08-3.38-19.97-14.59zm3.39 37.82l7.91-1.28 1.31-16.27-9.22 5.12c.31 4.14.31 8.29 0 12.43zm-9.57-30.28l-1.83 2.99 5.82 3.04c-.93-2.25-2.28-4.3-3.99-6.03zm-2.59 4.19L888.65 69.8l12.41 7.61 9.44-1.52c.77-10.64-.24-17.8-1.89-22.69l-7.35-3.87zM883.22 83.2c-.09.31-.18.61-.26.87l14.83 19.02 12.32-8.31c-1.28-3.67-.28-5.25-.19-10.25l-7.28-4.46-19.42 3.13zm.63-3.03l15.04-2.38-11-6.74-4.24 6.86c.18.74.24 1.5.2 2.26zm26.45-1.34l-5.47.88 5.21 3.17c.1-1.54.19-3.04.26-4.05zm-8.66-35.55c-1.67-1.1-2.83-1.86-5.97-3.96l-2.41 4.14 6.23 3.28 2.15-3.46zm-9.13 1.41l-4.55 7.81 5.48 4.05 5.29-8.59-6.22-3.27zm-11.05 4.8l.72 25.34 10.47-17.05-11.19-8.29zm-.35 41.48l.16 13.53 10.49.21-10.65-13.74zm22.99 34l5.07 2.03-2.75-3.55-2.32 1.52zm3.48-9.33l4.54-18.08c-.49-.46-.92-.97-1.29-1.53l-12.14 8.2 8.89 11.41zm5.65-54.21l9.25-5.09-13.84-9.82c1.99 3.15 3.81 7.81 4.59 14.91zm3.36 35.87c2.99 1.67 7.43 4.82 9.62 4.16 8.5-1.59 17.18-2.02 25.8-1.27l-7.59-9.71c-.2-.25-.3-.57-.3-.89V73.37L913.2 78.4c-.08 1.26-.24 3.76-.4 6.23l4.93 3.04c.09.05.16.11.22.19.82 3.17-4.58-1.46-5.25-1.58.33 5.96-2.85 6.2 3.89 11.02zm17.4 5.94c-1.65 5.05-3.46 19.23-8.31 25.26l11.78-.77c2.29-1.71 4.79-3.14 7.42-4.26l-1.53-5.98c-.02-.1-.03-.2-.01-.3.02-.37 9.19-13.63 9.33-13.95a85.78 85.78 0 00-18.68 0zm12.22 19.72c6.49-2.67 13.7-3.03 20.42-1.01l5.07-9.8c-3.82-5.19-10.29-7.66-17.4-8.71l-9.5 14.05 1.41 5.47zm78.17-58.12c-6.26-.15-12.53.15-18.75.91l-2.51 21.08 17.97 5.07 3.29-27.06zm-1.9 27.49l9.5 2.61 4.44-23.23-11.09-2.76-2.85 23.38zm-17.22 24.56l4.46 8.62c2.32-1.2 4.92-2.53 7.74-3.87l2.07-17.48c-.1-.02-.7-.17-.78-.15l-11.88-5.36-1.61 18.24zm.99-27.65l-3.33-.93-1.01 8.46 3.67-.08.67-7.45zm13.51 13.54l1.14-9.44-13.23-3.71-.66 7.47 12.31 5.57.44.11zm-15.6-36.8c-3.51.5-6.98 1.23-10.39 2.18l-2.31 15.44 10.26 2.88 2.44-20.5zm-11.87 2.67c-9.25 2.78-14.77 6.74-17.99 10.14l15.75 4.42 2.24-14.56zm-19.07 11.32c-1.4 1.78-3.13 3.85-3.23 6.19l19.51 10.89 11.03-.24 1.02-8.89-28.33-7.95zm-3.17 7.88l.72 19.17c1.16.98 2.22 2.11 3.12 3.34l8.52-15.63-12.36-6.88zm-1.14 35.91c5.22 3.83 10.16 8.03 14.79 12.56 4.76-1.6 8.91-3.04 11.85-4.05-10.03-1.28-12.61-5.36-21.94-17.63l-4.7 9.12zm31.68 6.58c.46-.22 1.03-.52 1.67-.86-.17-.61-16.39-19.66-16.07-20.42l2.19-10.96-4.75-2.66-8.76 16.16c10.66 14.22 12.21 16.98 25.72 18.74zm2.96-1.55c1.6-.86 3.03-1.63 4.87-2.6l-4.56-8.81c-.3-.34 1.66-18.84 1.59-19.24l-15.73.36-2.03 10.5 15.86 19.79zm1.67 2.38c5.58 1.03 10.13.89 16.17 1.26l-3.26-7.96c-5.31 2.57-9.38 4.75-12.91 6.65v.05zm13.77-10.25c3.88-1.81 8.08-3.62 12.42-5.16l-1.28-9.03-9.11-2.18-2.03 16.37zm38.62-30.16v.07c3.78-1.6 7.74-2.76 11.79-3.45l-11.05-18.75-8.41-3.85-2.23 12.95c4.83 6.33 8.52 11.24 9.9 13.03zm-9.1-26.63a35.074 35.074 0 01-7.35-5.09l-4.24 4.49 9.56 12.63 2.03-12.03zm5.29-6.99l-11.67.83c2.12 1.9 4.46 3.53 6.99 4.84l4.68-5.67zm6.44-21.87l-27.49 11.05c2.07 3.5 4.54 6.74 7.36 9.67.22-.22.46-.52.75-.65l19.38-20.07zm-28.85 11.61l-5.42 2.19 9.26 12.2 3.91-4.22a54.258 54.258 0 01-7.75-10.17zm5.07 50.15l.22 16.91c6.01-1.81 12.02-2.92 17.36-2.65-.05-4.37 1.18-7.79 2.81-11.53l-20.39-2.73zm20.96 1.36c1.26-3.09-.05-3.35-1.51-5.05-.38-.45-3.54-4.63-8.93-11.73l-2.58 15.03 13.02 1.75zm-.42 13.06l6.02-8.25-3.45-2.29c-1.55 3.59-2.63 6.63-2.57 10.54zm25.27-11.43l.64-9.36-2.38-2.12v.07c-9.16-1.26-18.44 1.96-21.92 3.38 1.8 1.84 3.19 3.42 1.55 7.58.41.28 4.04 2.65 4.3 2.9l12.4 2.89 5.41-5.34zm7.94-33.79l1.61-11.76-35.98 2.59-5.33 6.47 8.64 3.95c.48.09 11.47 19.45 11.78 19.74 2.97-.4 5.98-.44 8.96-.13l10.32-20.86zm-6.22-14.08c-13.84-7.57-14.13-14.21-25.6 1.85l25.6-1.85zm9.2-.63c.14-.02.27-.02.4 0l7.42 1.55a68.467 68.467 0 01-10.13-10.64l-26.78-8.72-.65.26-20.36 21.18 13.3-.95c13.56-19.06 14.36-10.54 30.14-2.2l6.66-.48zm-29.74-19.55l1.79-1.85-4.15-6.26-10.13 4.05 12.49 4.06zm17.28-6.48c-.96-2.05-1.88-4.22-2.76-6.51l-12.04 12.46 14.8-5.95zm-14.49 7.39l23.22 7.55c-3.1-4.3-5.81-8.86-8.11-13.64l-15.11 6.09zm18.26-22.59l1.3 4.13 17.16-4.71-17.77-3.74-.69 4.32zm-1.12 1.13l-4.56 1.18c.37 1.17.78 2.33 1.19 3.42l4.44-1.22-1.07-3.38zm-7.03-7.28c.61 2.45 1.29 4.82 2.02 7.1l4.75-1.24.72-4.29-7.49-1.57zm-14.01 19.02l3.92 5.89 11.14-11.57c-.44-1.18-.88-2.46-1.26-3.74l-13.8 9.42zm-8.47-12.62l7.56 11.46 14.18-9.67c-.8-2.53-1.55-5.17-2.25-7.96l-19.49 6.17zm-1.24.7l-16.16 11.92 12.29 4.05 11.43-4.55-7.56-11.42zm-26.32 8.66l8.49 2.77 17-12.6-1.83-2.75c-7.96 4.89-19 10.34-23.66 12.58zm-2.12 1.04c4.42 14.87 3.53 15.84 7.86 24.13l29.92-12.06-37.49-12.2c-.1.04-.2.09-.29.13zm-18.48 1.45c4.99 6.5 11.97 15.73 19.33 25.46l5.6-2.25a36.934 36.934 0 01-2.9-6.41l.03.01c-.45-1.43-2.4-8.42-5.08-18.05l-16.98 1.24zm-58.74 49.28v17.38l9.12 11.69c4.11.68 8.08 2.08 11.7 4.14.23-3.91-1.49-18.32-.04-21.84 2.56-5.92 14.87-23.81 64.65-20.72-10.65-14.08-22.64-29.96-29.84-39.31-44.68 3.86-54.98 45.96-55.59 48.66zm2.59-68.12l11.58 22.13c.37-.12 17.03 1.44 17.33 1.02L967.98.09l-18.42 3.46zm-24.13 19.77l34.08 2.28-11.14-21.23-22.94 18.95zm3.23-15.5l4.71 5.26 6.08-5.07-2.89-3.38-7.9 3.19zm-33.53 13.43l26.14 1.76 10.95-9.04-5.01-5.62-32.08 12.9zm-2.94 1.23l16.48 12.31c.2-.2 4.19-4.84 4.41-5.02l6.57-5.43-27.46-1.86zm-10.38 4.12c6.37 4.27 18.36 12.28 21.49 14.34l4.42-5.07-17.15-12.79-8.76 3.52zm-.97 2.85l.53 18.25 5.42 4 7.66-13.18-13.61-9.07zm-2.25 87.71l-7.17-.09 7.35 11.66-.18-11.57zm-.18-11.24l-12.02-.25c-.4.46-.81.99-1.23 1.46l5.34 8.48 8.06.03-.15-9.72zm-196.05-4.9l-10.13-.17c-.97 2.05-2.29 3.94-3.62 5.74l13.75-5.57zm-10.29 9.91l-1.15 20.53 5.84.27 2.8-23.84-7.49 3.04zm-30.82 6.75l-5.12-7.1-3.72 10.66 8.84-3.56zm-7.04 8.47l-.59 3.53 6.14.29c.17-2.16.24-4.18.24-6.16l-5.79 2.34zm-67.88 2.68l9.85-.15-7.6-25.97-.63.5h-.03c-1.08.83-2.22 1.55-3.43 2.16 1.55 7.72 2.17 15.6 1.84 23.46zm4-44.67l-5.97-26.56c-.1-.04-.38-.11-.46-.18l-12.99 2.54 8.95 27.16 10.47-2.96zm-15.21-2.25l-22.09 2.11 27.28 13.62-5.19-15.73zm50.82-39.97l-8.84 9.7 3.23 4.47 14.24-3.58 2.18-6.54-10.81-4.05zm10.49 2.39l-3.88-9.62-5.57 6.08 9.45 3.54zm97.84 14.91l9.82-4.41 1.83-8.54-10.18-4.05c.56 7.29.42 11.8-1.47 17zm18.06 27.46l-3.13 1.26-.64 3.57 33.12 8.86-4.95-8.54-24.4-5.15zm23.47 3.49l-6.08-10.42-14.97 6.03 21.05 4.39zm8.61 9.03c.97-9.33 2.75-18.55 5.32-27.57l-17.28 6.96 11.96 20.61zm7.36-34.33c.03-.07.05-.14.06-.22l-16.54-6.62-4.87 15.48 21.35-8.64zm-17.9-7.31l-7.28-2.92-3.89 7.26c2.06 3.56 4.18 7.22 6.35 10.96l4.82-15.3zm-8.65-3.45l-9.06-3.63v.15c1.83 3.16 3.73 6.43 5.69 9.81l3.37-6.33zm-11.29 11.18l8.44 1.68-6.9-11.82-1.54 10.14zm.35-11.86l-9.26 4.08-1.2 5.7 8.7 1.73 1.76-11.51zm2.78-18.12l-10.29-.85c2.46 4.23 5.17 8.89 8.1 13.96l.16.07 2.03-13.18zm-8.92 7.21l-.62 2.93 3.04 1.22-2.42-4.15zm-.9 4.38l-1.52 7.24 7.27-3.26c-.43-.73-.85-1.46-1.27-2.18l-4.48-1.8zm-11.41 14.71l6.55 1.31 1.01-4.69-7.56 3.38zm5.53 13.36l8.2 7 17.42-7.1c-1.24-2.12-2.45-4.21-3.65-6.29l-19.8-3.97-2.17 10.36zm-9.53-6.34c-.84 5.98-1.33 12-1.34 18.04l4.39 1.17 13.17-5.34-16.22-13.87zm12.89 36.07l2.2-12.16-5.55-1.47L708 96.48c-.69 1.29-1.36 2.61-1.83 4l18.55 4.24zm-19-2.87a73.35 73.35 0 00-1.93 7.59l18.99 6.08 1.69-9.38-18.75-4.29zm-75.28 16.33l3.64-10.44-4.54-6.37h-.26l-5.07 16.5 6.23.31zm-6.67 1.11l-1.88 6.18 6.97-2.82 1.07-3.06-6.16-.3zm38.57-56.64l1.65-4.93-3.44-.72 1.79 5.65zm-.05 4.61l-8.17 24.33c4.46-3.31 9.03-6.66 12.91-9.39l-4.74-14.94zm2.08-10.7l5.52-16.45-13.65 3.43 3.86 12.16 4.27.86zm1.44.3l16.42 3.3-7.87-21.17-2.78.71-5.77 17.16zm19.83-6.92c.14-2.28.76-7.83 1.54-14.19l-11.4 2.86c0 .03 7.45 20 7.43 20.03 1.22-2.77 2.03-5.7 2.43-8.7zm-3.65 18.59c-1.07 2.36-1.94 4.2-2.89 6.51l13.98-6.29 1.02-4.8-9.2-1.89c-.88 2.17-1.9 4.37-2.91 6.47zm5.36-34.29c.14-1.05.27-2.14.4-3.21l-5.97-2.39-6.96 7.43.45 1.22 12.08-3.05zm-7.01-6.21l-8.04-3.22-1.51.42 3.46 9.32 6.09-6.52zm-10.95-2.39c-6.33 1.74-12.16 3.4-17.07 4.8l3.54 11.72 14.75-3.69 2.53-2.7-3.75-10.13zm-14.5 18.24l-12.36 3.1-1.23 4.9 17.22 3.48-3.63-11.48zm-13.87 9.11l-2.36 9.4 22.51 3.76.39-1.19-2.61-8.26-17.93-3.71zm-2.73 10.79l-7.16 28.61 8.49 1.2 7.6-28.31-8.93-1.5zm-7.48 30.03l-.83 3.31 1.16 1.59 7.09.13 1.05-3.83-8.47-1.2zm6.04-30.25l-23.19-3.87-3.36 10.21 15.73 21.78 3.68.52 7.14-28.64zm-21.06 18.81l-1.71 7.6 8.01 1.13-6.3-8.73zm-1.75-28.26l-12.8 3.21 8.03 11.15 4.77-14.36zm-4.92 19.05l-7.77-2.7-.7 7.96 13.08 6.69.95-4.25-5.56-7.7zm3.44 23.77l14.75 1.34-4.05-5.56-9.45-1.33-1.25 5.55zm16.3-1.36l.5-1.92-2.16-.3 1.66 2.22zm7.06 9.84c1.29-1.02 3.64-2.84 6.59-5.07l-10.36-.15 3.77 5.22zm8.44-6.48l3.6-2.72-7.24-1.01-1.01 3.65 4.65.08zm5.23-3.93l2.51-1.88 8.6-25.57-12.05-2.03-7.58 28.28 8.52 1.2zm-.56 4.02l20.71.35c2-6.1 1.14-11.2 4.04-18.28-5.8 3.73-16.36 11.6-24.75 17.93zm26.26-22.17c.82-2.19 1.67-4.25 2.49-6.08h.03c1.35-3.03 2.84-6.09 4.2-9.31l-16.61-3.44-2.34 6.95 5.14 16.43c3.04-2.09 5.55-3.73 7.09-4.55zm3.51 1.49l11.61 3.1 1.93-9.18c-5.89 2.62-10.84 4.86-13.54 6.08zm13 3.47l2.57.68 8.71-15.05-9.11 4.09-2.17 10.28zm8.91-16.5l-5.21-1.07-.79 3.77 6-2.7zm-4.88 17.54l11.8 3.12c.12-5.16.4-14.11 2.13-21.55l-4.41 1.98-9.52 16.45zm16.79 5.94l-2.28-.6c-.06.54-.14 1.08-.24 1.62l2.52-1.02zm14.55 2.37l.47-2.57-4.05 1.62 3.58.95zm-14.28-37.9l-14.38-3.11-2.7 12.75 7.09 1.44 7.88-3.54c.89-2.46 1.6-4.98 2.11-7.54zm-15.85-3.42l-8.41-1.81c-.18 4.37-1.11 7.78-3.21 12.78l8.96 1.8 2.66-12.77zm-7.96-28.95l-6.21 6.64 5.07 2.03c.36-2.96.75-5.92 1.14-8.67zm-2.13.11c-4.15 1.05-8.3 2.14-12.35 3.22l6.8 2.72 5.55-5.94zm-9.79-3.39l-3.87-6.39c-2.01.73-4.32 1.5-6.89 2.24l2.38 6.39c2.72-.74 5.53-1.51 8.38-2.24zm-12.15-3.74c-4.67 1.27-9.43 2.2-14.23 2.78.41 2.68.61 5.4.58 8.11 4.62-1.33 10.11-2.88 16.03-4.5l-2.38-6.39zm-18.8 18.36l-3.3 13.18 11.56-2.9-3.55-11.68-4.71 1.4zm-1.58.44c-2.76.81-7.3 2.13-9.59 2.51l3.12 11.42 3.14-.79 3.33-13.14zm-13.44 17.18l8.7 1.76 1.01-4.22-9.71 2.46zm-2.47.62l-13.03 3.27-1.53 4.58 23.07 3.85 2.37-9.46-10.88-2.24zm-2.37-.95l-8.25-3.04-1.87 5.63 10.12-2.59zm-21.81-8.13l-15.71-5.82 7.47 14.87 8.24-9.05zM594.55 53l-25.98-8.87-2.41 11.07 40.06 13.89L594.55 53zm-.05 15.08l-1.31 6.52 6.08 3.11.69-7.73-5.46-1.9zm-5.15 18.45l3.76-18.94-5.89-2.03-14.89 18.59 17.02 2.38zm-17.22-.98l2.27 10.22c3-.99 6.85-1.26 13.29-.93l1.38-6.9-16.94-2.39zm13.66-20.49l-19.85-6.89 5.58 24.69 14.27-17.8zM568.36 31.7l-14.62-8.24-7.38 7.61 20.53 7.28 1.47-6.65zm.34-1.48l1.01-4.79-11.76-6.27-3.18 3.23 13.93 7.83zm-12.09-11.77l-3.24-1.72-2.56 3.42 2.69 1.51 3.11-3.21zm-6.69 2.84l-10.84 2.76 1.65 5.01 4.14 1.43 7.57-7.76-2.52-1.44zm-8.63 9.5l.84 2.55 1.63-1.68-2.47-.87zm1.34 4.09l7.82 23.71 12.62-2.46c-.11-.33 3.5-16.04 3.51-16.37l-21.33-7.56-2.62 2.68zm17.69 53.6l3.61 10.94c.06 0 2.54 1.29 2.61 1.24 1.97-1.75 4.16-3.22 6.53-4.37l-2.44-10.73-10.31 2.92zm17.35 40.14l19.61-.35.08-10.29-23.14-1.12 3.45 11.76zm19.71-12.11l.15-18.09c-19.09-1.72-22.61-.88-27.79 3.24l4.05 13.7 23.59 1.15zm.16-20.93h.13l.56-6.37-7.77-1.09-1.36 6.79c2.44.14 5.22.37 8.44.67zm.84-7.77l.75-8.56-6.24-3.18-2.13 10.67 7.62 1.07zm13.13 29.45l-.45-17.55-12.1-1.08-.15 18.03 12.7.6zm-12.71.81l-.09 10.2 13.08-.22-.24-9.36-12.75-.62zm-.15 16.79l13.17-5.32v-.06l-13.17.23v5.15zm13.69-43.65l-12.67-1.78-.56 6.31 11.96 1.09 1.27-5.62zm.31-1.4l.75-3.25-12.91-6.6-.71 8.05 12.87 1.8zm-.17 9.99l.43 17.49 9.79.47 5.07-16.56-15.29-1.4zm.52 18.93l.23 9.26h2.45l4.49-1.83 2.15-6.98-9.32-.45zm6.89 13.14l-1.67 7.1 5.62 1.62 3.11-11.53-7.06 2.81zm3.94 19.86c1.52.35 3.02.67 4.56 1.01l1.49-8.95-3.61-1.09-2.44 9.03zm6.24-9.37l1.87-11.34-2.5-.12-2.84 10.45 3.47 1.01zm2.1-12.72l.48-2.83-2.29.92-.49 1.77 2.3.14zm11.83-13.1c5.26-2.53 20.99-6.6 23.28-13h-.02c.53-.79 1.2-1.73 1.79-2.75l-21.86-.38c-4.36 3.31-7.93 6.03-9.57 7.29l6.38 8.84zm.79 5.34l-1.95.78c.05 2.48-.02 4.97-.23 7.44l9.61.46a51.267 51.267 0 00-7.43-8.68zm-3.52 18.42l16.07.63a42.322 42.322 0 00-4.17-8.88l-10.7-.51c-.27 2.85-.67 5.78-1.2 8.76zm14.46-9.57l13.78.66 1.09-19.86-22.86 9.19c3.08 2.98 5.76 6.35 7.99 10.01zm27.57-31.11c-3.47-10.37-3.23-6.2 7.23-10.53l3.09-5.33-16.21-4.3c-3.38 8.06-2.97 13.21-4.61 19.97l10.5.19zm1.51-.02c.39.46 7.54-2.72 8.08-2.88l-2.47-6.08-7.64 2.59 2.03 6.37zm9.36-3.35l12.69-5.14c.34-1.2.57-2.44.68-3.68l-12.47-3.3-3.4 5.88 2.5 6.24zm6.78 3.06l2.41.56c.22-.62.47-1.23.69-1.8l-3.1 1.24zm-.26 33.57l18.83.87 3-16.76-19.02-6.08c-1.34 7.27-2.28 14.6-2.81 21.97zm20.22.93l7.02.34c.41-.01 8.71 4.52 9.07 4.63l5.87-15.32-19-6.08-2.96 16.43zm39-6.38l7.09-17.9c-1.49-2.57-2.93-5.04-4.29-7.39l-34.4-9.19-4.15 23.02 35.75 11.46zm1.4.38l9.33 2.94 3.43-9.12h.03c-2.12-3.64-4.17-7.19-6.15-10.58l-6.64 16.76zm10.39-16.03l17.47 5c2.34-3.25 5.3-6 8.7-8.11 7.58-7.41 9.01-27.47 16.44-37.12l-.14-17.74c-.02-.01-41.04 16.54-41.07 16.5-3.06 10.62-5.52 22.16-6.12 33.36l4.72 8.11zm81.77-55.85l12.18-22.83c-2.48 1.37-24.86 8.75-25.35 11.92l13.17 10.91zm-15.1-8.79c-1.6 1.76-3.37 3.73-5.19 5.81L848.7 64.9l3.39-6.39-13.72-11.37zm6.85-11.94l6.08-7.91-9.38-7.2-16.98 12.16 9.01 7.46 11.27-4.51zm-22.45-.96l-4.47 11.82 12.61-5.12-8.14-6.7zm-11.22 7.68l-10.8 7.76 4.25 1.77 7.22-2.92-.67-6.61zm1.17-2.62l8.7-6.23-10.13-8.36 1.43 14.59zm-13.35 11.36l-9.74 6.99 13.47-5.44-3.73-1.55zm-1.56-.69l-15.42-6.47c-2.26 5.69-4.83 12.5-7.22 19.97l8.82-3.57 13.82-9.93zm18.69-3.17l4.39-11.6-8.01 5.76.69 7.02 2.93-1.18zm-.9 6.47l.13 16.22c5.54-7.45 14.19-17.29 20.41-24.1l-.28-.23-20.26 8.11zm6.6 12.61l16.84 17.14c2.92-5.51 5.97-11.22 8.95-16.8l-15.77-12.16c-3.36 3.83-6.9 7.96-10.02 11.82zm9.93 47.24l13.98 10.36c5.23-5.22 10.83-11.15 15.99-17.23l-17.89-14.19c-4.99 8.73-9.36 16.36-12.08 21.06zm30.91-7.99c4.99-5.78 9.44-12 13.32-18.58-.97-.94-2.03-3.21-.61-8.41l-16.02-13.28c-4.87 8.56-10.08 17.69-14.8 25.93l18.11 14.34zm15.11-15.87c-3.16 5.25-6.7 10.26-10.61 15l10.84.21-.23-15.21zm-2.79-51.77l-14.18 24.84L876.43 75l-1.07-37.51zm-9.18-24.82l-15.73 20.44 23.01-9.29-7.28-11.15zm-9.54-3.12l-13.52 9.71 9.04 6.92 12.19-15.81-7.71-.82zm-23.45 2.07l8.75 6.71 12.56-9.12-19.35-2.03-1.96 4.44zm-.62 1.33l-8.02 17.85 16.16-11.59-8.14-6.26zm-23.06-6.48l1.39 14.19 10.97 9.12 10.21-22.73c-8.06-.38-15.56-.59-22.57-.58zm-15.53.17l15.35 12.7-1.28-12.91c-4.93 0-9.62.07-14.07.21zm-3.79 15.39l19.66 2.66-.13-1.29-17.2-14.27c-.47 4.35-1.25 8.66-2.33 12.9zm-.35 1.38c-1.74 6.69-4.27 12.22-6.92 18.79l16.3 6.87 12.16-8.76L810 26.13l-20.16-2.72zM761.86 8.86l-10.77 27.1c-.11.26-.38.46-.67.46-.08.02-11.8-1.01-11.89-1.01l-2.09 13.57 35.78 14.37c6.96-23.08 15.87-34.8 17.67-56.57-10.6.43-19.84 1.21-28.03 2.08zM725.5 32.19l.43.72 23.97 2.03L760.19 9c-12.06 1.31-22.6 3.08-33.54 4.26l-1.15 18.93zM715.4 14.7l8.79 15.21 1.01-16.46c-3.13.17-6.1.65-9.8 1.25zm-1.34 3.43c.47 6.47 1.17 16.16 1.57 22.51l10.6 4.25.89-4.25-13.06-22.51zm-.94 44.76c-.41 1.37-.75 2.76-1.01 4.16l7.98 6.83 2.03-9.5-8.52-1.7-.48.21zm-22.01-36.04l20.69.44.04.04c-.32-4.49-.63-8.82-.89-11.83-5.82 1.15-12.29 2.58-18.9 4.19l-.94 7.16zm-.45 3.81c.04 0 21.98 8.83 22.02 8.8-.2-3.15-.47-6.93-.76-10.68l-20.97-.44c-.09.77-.2 1.55-.29 2.32zm-.16 1.47c-.68 5.53-1.31 10.84-1.69 14.45l24.18 5.24c.28-3.71 0-6.98-.2-10.77l-22.29-8.92zm-8.59-24.59a75.184 75.184 0 01-7.24 3.17l3.95 6.51c3.73-.97 7.53-1.93 11.3-2.85.1-.76.19-1.46.28-2.12-2.56-1.9-5.35-3.49-8.29-4.71zm-10.8-2.63l2.03 3.29c1.98-.77 3.63-1.47 4.89-2.03a36.96 36.96 0 00-6.92-1.26zm-7.85-.05l2.18 5.86c2.32-.65 4.48-1.36 6.37-2.03l-2.38-3.95c-2.06-.11-4.12-.07-6.17.12zM648.97 8.6a52.73 52.73 0 011.35 5.2c4.64-.56 9.22-1.46 13.73-2.68l-2.26-6.08c-4.42.55-8.74 1.74-12.82 3.56zm-14.85 3.58a29.13 29.13 0 0013.26 1.88c-.33-1.5-.73-3.08-1.25-4.72L634.2 7.25l-.08 4.93zm-.31 17.39c4.66-.92 10.06-2.74 14.66-4.01.08-2.9-.11-5.79-.56-8.65-4.73.39-9.38-.04-13.85-1.62l-.25 14.28zM632.8 5.54l.07-4.18-5.62.06-.62 3.04 6.17 1.08zm-12.04 20.14c5.57 1.52 6.8 3.63 11.61 4.1l.27-15.05c-1.63-.68-3.2-1.51-4.69-2.48l-7.19 13.43zm-4.15 4.62l-2.95 3.24L618.25 45l10.55 3.95 6.6-1.66-3.24-11.73c-6.54-.47-7.94-3.06-15.55-5.26zm-2.02.01l-2.13.27.58 1.43 1.55-1.7zm-3.03-1.98l.35.88 1.44-.19-1.79-.69zm-.57 2.46l-22.73 2.99 17.32 6.51 6.42-7.1-1.01-2.4zm-16.58-9.1l-3.22 10.24 19.25-2.53-.72-1.78c-4.58-1.76-9.84-3.81-15.31-5.93zM586.54 8.8l-4.91 1.71 6.01 2.36-1.1-4.07zm-6.45.75l6.08-2.14-1.31-4.96-4.77 7.1zm-1.18 6.04l8.39 16.87 2.31-.3 3.51-10.97-14.21-5.6zm-6.24 9.8l10.75 5.73-8.35-16.84-2.4 11.11zm-.34 1.45l-3.46 15.89 24.53 8.35-8.88-17.75-12.19-6.49zm-.08-13.03l-12.93 4.52 10.71 5.66 2.22-10.18zm-10.78-5.16l-4.89 8.17 1.37.73 13.36-4.96c-3.89-1.55-7.27-2.93-9.84-3.94zm-15.16 2.72l8.97 4.77 4.82-8.04c-8.82-4.38-8.37-2.56-13.79 3.27zm-9.43 6.07l1.73 5.25 10.61-2.71 2.84-3.92-6.94-3.69a38.53 38.53 0 01-8.24 5.07zm-3.92 23.71l8.89.5-7.63-23.13-.75.23-.51 22.4zm-.23 9.98l12.27.1-2.67-8.11-9.4-.53-.2 8.54zm-.29 11.81l15.19-3.75-2.17-6.56-12.77-.08-.25 10.39zm-.17 9.48l18.85-2.74-3.04-9.12-15.63 3.87-.18 7.99zM532 82.66l22.66-2.15-3.11-9.46-19.34 2.84-.21 8.77zm-.16 5.98l6.08 22.43c10.68-2.54 20.12-5.35 25.56-8.39l-31.64-15.84v1.8zm-.53 23.94c1.75-.38 3.5-.77 5.21-1.18l-4.77-17.68-.44 18.86zm-.4 16.84l33.98-.59c.32-7.64-.26-15.28-1.73-22.78-7.24 3.52-19.18 6.72-31.92 9.48l-.33 13.89zM514.66 47.2l1.01 3.84 14.18.07.72-31.59-.83.22-15.08 27.46zm7.13 82.22l-.15.15 6.43-.11.3-13.31c-5.54 1.21-11.17 2.23-16.59 3.24l10.01 10.03zM406.66 116v.04c2.9-.26 5.74-.45 8.52-.59l-.14-14.57c-13.1 1.01-26.27 11-29.42 13.5l2.53 3.64c8.44-1.01 15.04-1.71 18.51-2.02zm-117.78 23.19c.61-1.86.87-3.83.83-5.79l-9.58 1.24v.39l8.79 4.23-.04-.07zm-11.27-23.15l1.45-3.04-9.06-10.29 1.24 12.69c2.11-.16 4.3.09 6.37.64zm-5.01.78c-.43 0-.84.06-1.26.06l.87 8.95c.24-.02.48-.02.72 0l4.04-8.43c-1.42-.39-2.89-.58-4.37-.58zm-18.31 17.04c0-1.76.26-3.52.76-5.21l-46.29-22.11-.57 1.18 7.35 27.37 6.44-12.49c.09-.17.24-.3.42-.36.61-.52 27.36 14.42 27.91 14.43l4.11-.7c-.08-.7-.13-1.41-.13-2.11zm-31.39-10.01l-6.29 12.31 22.66-3.68-16.37-8.63zm-41.04 18l3.54-.58-3.52-20.56-12.85 12.39 12.83 8.75zm-13.93-7.75l-12.36 11.96 24.22-3.89-11.86-8.07zm152.59-94.71l1.22 1.84 25.62-10.55-10.13-6.63-15.32 12.41-1.39 2.93zm.54-14.4l4.18-8.79-9.12-5.97 4.94 14.76zm37.8 40.48l-5.1 1.53 1.37 12.62 5.97 4.61 32.48-1.9c.1-.33 4.5 3.11 4.68 3.17l28.06-20.2-13.06-16.1c-1.82.54-51.15 15.3-54.4 16.27zm52.46-18.71l-8.64-10.65-13.65 17.31 22.29-6.66zm91.3 22.08l2.03 1.01 13.67-3.39-4.71-17.45-10.99 19.83zm17.12-36.91l-8.72 1.98 2.51 9.29 6.21-11.27zm-9.31 16.88l-15.05-11.55 10.9 19 4.15-7.45zm0-1.82l-7.97-19.43-12.59 3.67 20.56 15.76zm-22.27-15.26l-8.44 2.46 9.96 28.17 10.43 5.19 5.42-9.83-13.07-22.69-4.3-3.3zm10.14 77.33v.76l5.96 2.46-9.7-27.55-6.01 11.15 9.46 12.31c.19.25.29.55.29.87zm-52.64-24.63l12.33-3.04-5.68-12.85-13.78 1.37.34 6.21 6.79 8.31zm-6.45-3.31l.21 3.97 2.83-.16-3.04-3.81zM323.8 99.73c-14.13-8.5-22.45-11.69-25.86-12.86l-13 27.37 13.27 1.69 25.59-16.2zm-21.14 16.84l17.77 2.31.76-14.06-18.53 11.75zm22.7-75.24l.07-.06-2.88 1.19 8.4 12.85 3.34-2.46-8.93-11.52zm6.42 15.19l6.25 9.54 4.05-3.22-6.87-8.86-3.43 2.54zm21.79 21.81l-1.2-10.97-9.37 2.8 10.57 8.17zm-12.31-5.88L316.7 92.3c2.94 1.61 6.22 3.49 9.87 5.7l26.2-16.65-11.51-8.9zm42.92-17.6L367.97 44.2 339 67.07l1.21.94 43.97-13.16zm-17.47-11.48l-9.12-5.98-21.27 15.7 6.87 8.83 23.52-18.55zm-66.98 39.76l-.57 1.18c5.59 1.95 10.99 4.37 16.16 7.25l24.75-19.98-.48-.36-39.86 11.91zm-31.41-20.84l-9.06-12.24-15.45 11.21 3.4 4.52 17.8 6.43 3.31-9.92zm-3.24 18.75l-6.12 4.29 6.22 17.56 1.82-2.09-1.92-19.76zm2.66-7.86l9.6 3.46 1.01-.78-7.93-10.79-2.68 8.11zm11.8 1.85l6.78-5.14-9.19-12.72-5.12 3.09-1.01 3.22 8.54 11.55zm7.93-6.01l6.18-4.69-9.49-11.38-5.73 3.47 9.04 12.6zm-8.5 8.2l14.71 5.31 10.63-22.37-1.23-1.19-24.11 18.25zm25.99-18.44l.94-1.93-1.67 1.21.73.72zm21 13.52L312.4 56.46l-3.14 6.61L320.28 74l5.68-1.7zm-17.35-7.86l-7.22 15.21 17.32-5.19-10.1-10.02zm-.27-12.76l-7.55-8.82-7.4 4.46 9.8 9.71 4.05-3.04 1.1-2.31zm-16.14-3.57l-6.75 4.05 9.35 11.26 7.26-5.5-9.86-9.81zm-1.15-1.06l-11.02-10.94-2.3 6.92 6.7 8.02 6.62-4zm-13.84-2.41l-2.3 6.91 2.63 3.67 5.64-3.42-5.97-7.16zm-.66-7.16l-1.65 1.21.86 1.18.79-2.39zm-2.2 15.74l-1.63 4.9 3.59-2.17-1.96-2.73zm.25-10l-2.03-2.84-12.16 8.83 8.45 11.42 5.74-17.41zm-2.83-4.01l-6.38-8.71-2.23 5.45 4.77 6.02 3.84-2.76zm-9.43-1.94l-22.8 18.34 3.39 4.51 23.83-17.29-4.42-5.56zm-30.97 12.66l-8.44 7.1 18.84 6.8-10.4-13.9zm-1.64-2.27l-.44-.58-10.26 8.52.85.3 9.85-8.24zm-17.87 18.7l5.62 15.1 23.68-14.83-20.7-7.46-8.6 7.19zm17.06 9.63l5.5 10.47 10.01-5.02-5.72-11.58-9.79 6.13zm-18.28-8.67l-18.23 15.26 23.71-.29.07-.1-5.55-14.87zm-19.98 16.72l-5.69 4.76 11.78 5.63 17.03-10.67-23.12.28zm7.66 11.13l11.24 5.38 5.86-16.12-17.1 10.74zm12.56 6l15.03 7.18-8.95-24.02-6.08 16.84zm15.62 4.84l12.1-8.35-10.96-20.84-9.73 6.08 8.59 23.11zm13.36-9.27l9.08-6.32-3.85-7.8-9.99 5 4.76 9.12zm10.29-7.08l14.81-10.24-.42-4.32-21.75-7.85-2.77 1.81 10.13 20.6zm.6 1.28l8.86 17.93 4.38-4.78-6.34-17.91-6.9 4.76zm9.58 19.36l3.65 7.38c1.41-.8 2.92-1.41 4.49-1.81l-1.24-13.11-6.9 7.54zm25-10.33l7.06-14.87-24.9-8.98.81 8.4 17.03 15.45zm-16.78-13.23l.26 2.72 14.54 14.84 1.41-2.88-16.21-14.68zm14.39 31.81c1.74 1.17 3.27 2.63 4.54 4.31l8.82-5.61-12.02-1.53-1.34 2.83zm38.92.43l6.43.82 8.67-11.7c-3.73-2.51-7.21-4.74-10.4-6.72l-3.87 2.45-.83 15.15zm38.59 2.14l13.85-17.89-7.9-11.31-11.22-8.65-25.9 16.42c8.15 5.11 19.48 12.62 31.17 21.43zm18.83-31.2l-2.11 10.76 16.03-11.57-13.92.81zm16.09-2.37l1.68-1.2-3.63-2.64-13.07.77-.78 3.96 15.8-.89zM377.81 90l-8.9.51 6.87 9.84L377.81 90zm1.05-5.4l-16.02.95 4.65 3.6 10.59-.63.78-3.92zm-16.48 36.38c3.5-.37 11.32-1.21 17.59-1.93l2.82-3.62-7.63-10.93-12.78 16.48zm19.56-2.16l3.04-.35-1.27-1.81-1.77 2.16zm6.75-8.58l-7.3-10.91-4.18 3.04 7.58 10.86v.04c.8-.66 2.16-1.68 3.9-3.03zm1.19-.74c5.88-3.99 15.4-9.36 25.13-10.07L400.3 88.71l-4.43.28-13.3 9.58 7.31 10.93zm10.84-22.23l12.22-.71-1.44-8.84-12.02 8.65 1.24.9zm13.97 10.13l-1.54-9.43-10.62.61 12.16 8.82zm-.3-10.93l17.01-.96-11.14-14.11-7.45 5.35 1.58 9.72zm18.75-1.03l4.8-.26-.3-5.97-10.38-12.81-5.84 4.19 11.72 14.85zm5.27-17.67l12.3-2.8-5.21-11.74-7.6 5.49.51 9.05zm5.85.12l7.43-.75-.4-.89-7.03 1.64zm27.3 11.63L460 82.38l6.51 14.72 2.14-.13 2.91-17.45zm-1.44 17.36l14.89-.94-12.16-15.77-2.73 16.71zm-1.42 1.61l.94 5.35 12.79.31 3.64-6.76-.05-.07-17.32 1.17zm18.88-3.85l6.32-11.69-2.9-8.24-15.75 3.89 12.33 16.04zm2.93-21.31l-2.94-8.32-21.14 2.11 7.87 10.24 16.21-4.03zm-5.8-16.32l-3.04-8.71c-16.24 2.76-13.06 6.62-16.27-4.75l-7.9 2.75 23.29 11.62 3.92-.91zm-1.9 1.88l3.21 1.63-.8-2.15-2.41.52zm-4.47 1.06l-14.77 3.44 1.83 2.38 20.46-2.03-7.52-3.79zm-15.24 7.51l-9.29.92 5.6 12.67 11.87-2.91-8.18-10.68zm-1.04-1.26l-1.54-2.03-7.8 1.81.48 1.01 8.86-.79zm-15.4 19.49l9.8 12.04 8.52-.53-6.4-14.46-11.92 2.95zm10.91 13.41l10.01 12.3 1.91-.13-2.25-12.77-9.67.6zm11.11 13.67l1.32 1.67-.3-1.75-1.02.08zm2.25-1.61l24.41-1.74-8.31-10.79-3.53 6.58c-.07.12-.16.21-.27.28-.36.34-12.91-.31-13.32-.2l1.02 5.87zm.24 1.44l.73 4.12 1.16 1.42c4.77 6.83 11.89 1.62 22.36 1.01l.01-8.26-24.26 1.71zm24.57-33.06l3.77-6.95-5.72 1.42 1.95 5.53zm4.47-8.6l-9.12-4.56 2.23 6.27 6.89-1.71zm-23.25-35.95c-9.47 2.77-18.74 5.5-26.5 7.78l5.27 2.63c12.22-3.34 9.73-7.1 12.86 4.36l12.59-2.83-4.22-11.94zM449.99 45.7l12.61 16.44 13.73-3.18-26.34-13.26zm-.22 4.51l-3.04 2.22 5.4 12.16 7.43-1.73-9.79-12.65zm-.84-1.2l-4.57-5.94-7.25 1.38.7 12.57 11.12-8.01zm-14.74 21.33l3.15 3.87-.23-4.15-2.92.28zm2.84-1.72l-.5-8.9-6.93 4.99 3.49 4.31 3.94-.4zm-.65-10.61l-.7-13.32-19.34 3.7 12.34 15.21 7.7-5.59zm-51.32-4.24l-.19-5.5-10.4-15.21-9.37 7.58 19.96 13.13zm-.28-8.23l-.73-20.27-8.45 6.83 9.18 13.44zm-2.08-21.01l-5.4-1.59-18.41 13.58 4.95 3.24 18.86-15.23zm-7.1-2.14l-7.53-2.17L357.58 28c-.19.17-6.96 2.87-7.16 2.98l7.17 4.7 18.01-13.29zm-26.79 9.24l-22.09 9.12L335.47 52l20.88-15.42-7.54-4.95zm-29.73 10.78l-2.48 5.21 15.64 22.79 4.54-1.36c-.23-.18-.54-.39-.69-.64l-17.01-26zm-3.17 6.72l-2.81 5.91 14.36 16.81 3.37-1.01-14.92-21.71zm-1.23-10.78l-3.65 1.15 1.83 2.67 1.82-3.82zm-5.08 1.6l-7.4 2.33 6.81 7.98 3.14-6.59-2.55-3.72zm-.85-1.27l-11.27-16.39-7.61 5.52 11.32 13.25 7.56-2.38zm-20.07-10.02l-8.1 5.89 11.78 11.7 7.5-4.53-11.18-13.06zm-.87-1.12l-3.51-4.05-2.91 8.76 6.42-4.71zm-5.75-6.6l-6.66-7.79-11.9 9.96 10.56 14.42 3.28-2.38 4.72-14.21zm-20.79 4.01l-27.5 23 4.93 6.51L261.65 36c-.13-.28 2.7-6.61 2.71-6.85l-3.09-4.2zm-1.65-2.27l-.35-.49-27.62 22.94.44.57 27.53-23.02zm-15.47 8.3l-8.65-10.89-14.06 11.6 8.43 11.15 14.28-11.86zm-13.71-8.59l-6.37-6.83-3.92 2.56 6.61 7.31 3.68-3.04zm-11.54-3.48l-4.7 3.04 6.4 8.49 5.07-4.15-6.77-7.38zm-7.21 4.71c-7.67 4.83-8.9 9.25-14.3 24.18l18.49 6.66 11.66-9.68-15.85-21.16zm-15.24 26.95c-2.83 8.35-5.9 18.66-9.05 27.57l25.96-21.54-16.91-6.03zm-11.23 33.1c-.28.67-.57 1.31-.85 1.92l32.95-27.56-.86-.31-31.24 25.95zm-4.72 9.34c-.11.18-.21.33-.32.49l4.05 23.71 21.83-11.98-25.56-12.22zm4.01 25.98l10.65 12.74 12.25-25.58-22.9 12.56v.28zm8.3 20.98l6.53-1.01-3.84-4.64-2.69 5.65zm8.15-1.26l13.47-2.18-7.19-26.81-11.09 23.24 4.81 5.75zm56.57-15.24a18.57 18.57 0 015.23-5.07l-13.17-26.62-22.51 15.59.71 1.91 29.74 14.19zm-1.82 10.34c0 .64.04 1.26.1 1.88l8.32-1.42c.01-.45-.04-.87 0-1.32l-7.78-3.72c-.42 1.49-.64 3.04-.64 4.58zm11.05-5.97c.15-.13.31-.24.46-.36l-3.84-7.78a17.088 17.088 0 00-4.59 4.34l7.97 3.8zm1.72-1.04c.32-.18.66-.34 1.01-.47.01-.08-.89-8.91-.85-8.98-1.4.36-2.76.91-4.02 1.63l3.86 7.82zm1.44-26.4l9.96 11.31 2.87-6.02-13.67-13.95.84 8.66zm8.28 28.24l.08.1 8.02-5.09c-1.1-1.46-2.43-2.73-3.94-3.77l-4.16 8.76zm1.52 2.57c.06.19.13.38.19.57l9.51-1.23c-.32-1.57-.86-3.08-1.6-4.5l-8.1 5.16zm11.11-.85l14.19-1.83 8.79-9.04-13.04-1.64-11.74 7.44c.84 1.59 1.45 3.3 1.8 5.07zm-.77 9.39l2.6 1.26 9.02-9.28-10.65 1.37.11.06c.01.22.04.46-.07.63 0 2.03-.34 4.04-1.01 5.96zm4.08 2.02l15.18 7.24 9.55-19.41-14.79 1.95-9.94 10.22zm29.48-15.71l3.66-4.94-11.72-1.5-8.29 8.53 16.35-2.09zm2-.24c6.29-.8 12.82-1.63 19.33-2.44l-16.01-2.05-3.32 4.49zm25.05-3.16l5.71-.76c-6.69-5.02-12.74-9.32-18.23-13.04l-8.23 11.15 20.75 2.65zm4.67 2.34l9.53 8.57c2.19-1.41 5.28-5.58 8.08-5.55l4.48-5.75c-6.86.84-14.36 1.76-22.09 2.73zm11.69 10.59l9.81 8.85 7.91-6.98c-4.15-2.32-7.19-4.04-8.21-4.74v-.04c-4.09-2.56-3.83-1.84-5.39-.56l-4.12 3.47zm25 2.63l-.23-9.81-5.07-7.27-7.31.88-4.96 6.37c5.77 2.82 7.58 4.52 17.57 9.83zm24.3-39.59l1.01.72c10.94.16 17.62.16 20.55.16.1-.39.41-.72.78-.88L438 86.61l-23.41 1.31 1.74 10.71zm21.55 2.32c-2.8-.01-8.69-.05-18.54-.15l19.46 14.15-.92-14zm-21.4-.15l.14 14.59c7.39-.33 14.31-.27 20.36.03l-20.1-14.62h-.4zm12.98 17.24l2.14 16.21 8.37-2.28-.89-13.6c-2.97-.17-6.21-.33-9.62-.33zm2.5 19.09l1.27 9.72 7.54-2.17-.65-9.77-8.16 2.22zm20.63-39.48l-9.27-11.34-3.9.22.7 11.89 12.47-.77zm-11.76 3.62l.79 11.98 22.29-1.59-9.11-11.28-13.97.89zm.84 13.43l.06 1.01c12.34.95 12.01 1.43 29.32 4.87l-6.08-7.55-23.3 1.67zm5.99 4.37l6.26 9.12 17.19-4.73c-14-2.79-16.69-3.59-23.45-4.39zm22.15 17.26l7.59-2.22c-1.46-3.27-2.76-6.09-3.78-8.32l-3.55 1.02-.26 9.52zm10.63-2.54l13.09 2.13 1.12-7.55-17.03-3.54-1.23.16 4.05 8.8zm14.69-8.21l.51-3.39c-3.54.57-6.84 1.08-9.62 1.49l9.11 1.9zm-.2 10.61l8.18 1.36 1.42-7.1-8.38-1.75-1.22 7.49zm9.76-8.65l-.26-6.82-7.26 1.23-.61 3.91 8.13 1.68zm1.38-10.12l-1.16-3.31-6.61-2.74v7.32c2.47-.4 5.09-.82 7.77-1.27zm-.22 3.02l.29 7.36 8.99 1.92 4.8-.12-9.89-9.89-4.19.73zm22.58-7.24l.64-27.78-26.89-13.48-.78.19-5 9.24 12.08 34.22.77 1.28c6.15-1.08 12.76-2.32 19.18-3.67zm.76-31.13l.4-16.92-22.96 5.67 22.56 11.25zm.62-29.52l-13.79-.07 3.68 13.63 9.86-2.41.25-11.15zM508.8 25.73l1.83 6.8 10.03-2.27 5.21-9.44c-4.11 1.16-10.1 2.88-17.07 4.91zm-1.38.43l-3.57 1.01 7.9 19.26.76-1.41-5.09-18.86zm-8.32-10.61l2.56 6.26 3.14-.91-5.7-5.35zm-5.64-5.32l-8.44 2.76L490.71 25l9.57-2.79-3.7-9.05-3.12-2.93zm-9.72.13l7.35-2.35-5.07-4.75-4.05 3.4 1.77 3.7zm-6.36 5.06l5.89 11.66c2.23-.64 3.76-1.02 6.03-1.65l-5.7-12.03-6.22 2.02zm-7.83 2.52c2.11 3.4 4.41 7.17 6.92 11.22 1.55-.45 3.83-1.2 5.42-1.67l-5.88-11.63-6.46 2.08zm-3.72 1.18l4.99 11.7 2.82-.83c-2.5-4.05-4.78-7.76-6.87-11.15l-.94.28zm-5.6 1.8l4.58 11.61 4.58-1.3-4.93-11.66-4.23 1.35zm-7.03 1.87l-14.62 9.12 4.9 6.91 19.96-5.84-4.56-11.6c-.72.11-5.02 1.85-5.68 1.41zM430.69 5.96l8.5 11.15 6.44-4.7L437.1.26l-6.41 5.7zm-22.47 23.1l33.63 9.91c-.1-.5-5.84-7.33-4.89-7.78.24-.29 14.92-9.16 15.2-9.39l-5.7-8.16c-10.88 7.8-5.37 6.9-16.84-6.74l-13.25 11.79-8.15 10.37zm-3.73 4.73l9.8 12.07 24.76-4.7-32.75-9.65-1.81 2.28zm-4.11-4.26l1.89 2.03 1.27-1.27-3.16-.76zm-2.58.55L386.44 48.7v3.37l14.39-18.25-3.03-3.74zm-1.18-1.43l-11.14-3.28.76 21 10.62-17.43-.24-.29zm-14.94-18.49l-10.66 7.92c.07.01 7.47 2.23 7.54 2.21v.07l14.9 4.35-11.78-14.55zm-21.43 4.81l8.98 2.65 11.52-8.53-4.98-6.14-15.52 12.02zm-21.84 8.15l10.55 6.92 7.84-3.23 9.55-7.1-17.42-5.12-10.52 8.53zm-7.74-5.06l5.21 3.42 9.7-7.86-11.22-3.31-3.69 7.75zm-5.88 12.42l9.93-8.05-4.66-3.1-5.27 11.15zm-4.86-24.44l-3.59 2.61 9.49 6.22 2.96-6.21-8.86-2.62zm-4.88 1.74l3.13-2.27-12-3.55 8.87 5.82zm-9.52 8.69l11.32 17.29 3.27-6.93-5.6-16.88-8.99 6.52zm-2.36 1.69l-4.56 3.31 11.56 16.79 5.14-1.61-12.14-18.49zM290.66 4.43l-5.8 17.47 4.14 4.85 13.47-9.78-8.68-13.26c-.98.47-2.05.72-3.13.72zm-14.13 7.82l6.08 7.1 5.22-15.5c-.26-.11-.51-.24-.76-.39l-10.54 8.79zm-15 8.06l.35.48 22.96-19.28c-.09-.14-.19-.27-.27-.41l-23.04 19.21zm-4.71-6.49l3.04 4.17 11.54-9.58-2.94-3.94-11.64 9.35zm-2.38 1.77l-12.56 10.14 3.37 4.32 12.23-10.26-3.04-4.2zm-17.22-8.58l12.41 1.87-5.01-6.76-7.4 4.89zm-6.61 4.3l10.52 13.3 12.61-10.14-2.91-3.96-15.42-2.32-4.8 3.12zm-5.23 3.4l6.25 6.72 3.12-2.56-5.32-6.77-4.05 2.61zm-23.9-9.7l9.29 12.34c3.3-2.18 7.95-5.21 13.56-8.87l-18.42-7.2-4.43 3.73zm-22.33 27.23l6.74 11.46 6.08 2.19c5.67-15.81 7.72-21.39 16.24-26.81l-9.06-12.07c-7.51 6.28-14.26 15.48-20 25.23zm-4.2 7.49l6.71 2.43-4.16-7.1c-.88 1.55-1.72 3.11-2.55 4.67zM155.1 32.7s14.42 5.08 14.43 5.07c1.44-2.78 3.01-5.58 4.63-8.36L163.92 12l-8.82 20.7zm-16.64 33.27l2.56-6.14-8.84-3.99-11.5 1.43 17.78 8.7zm-.92 5.91l-.33.79 3.24.62-2.91-1.41zM58.66 57.64l20.92 3.99 2.36-6.08-21.88-4.16-1.4 6.25zm.01-6.46l-27.93-5.32-1.01 6.32 27.54 5.26 1.4-6.26zm44.02 3.73l-14.59-7.1c-.67 1.75-1.63 4.18-2.7 6.96l15.96 3.1 1.33-2.96zm-.18 3.99c.37 1.34-17.36-3-17.65-2.78L82.5 62.2l27.61 5.27 3.32-7.37-9.45-4.6-1.47 3.4zM85.45 46.5L63.59 35.88l-3.22 14.1 22.09 4.21 2.99-7.69zm-6.26 24.08l27.07 5.31 3.21-7.09-27.53-5.26c-.96 2.41-1.87 4.8-2.75 7.04zm28.49 5.61l24.51 4.82 3.04-7.29-24.31-4.64-3.24 7.11zm28.1-3.79l.48-1.15-21.6-10.49-3.19 7.01 24.31 4.63zm-.42-33.08l-5.07 13.82 13.25-1.7-8.18-12.12zm9.4 11.45l3.35-8.11-11.5-3.95 8.15 12.06zm-3.19 7.65l1.7-4.05-8.38 1.01 6.68 3.04zm1.31.67l8.25 3.72-5.85-8.66h-.36l-2.04 4.94zm3.32-8l17.98-2.32c.06-.15.13-.29.2-.42l-14.9-5.17-3.28 7.91zm18.78-4.05c1.02-2.2 2.08-4.43 3.23-6.7l-15.32-5.38-2.86 6.89 14.95 5.19zM131.13 24.3l21.27 7.48 8.75-20.54-21.61-5.63-8.41 18.69zm-1.7 3.72l5.88 8.77c.19-.08 13.19 4.57 13.37 4.58l2.89-6.89-21.63-7.58-.51 1.12zm-.73 1.56l-11.37 25.25 11.3-1.47 5.69-15.49-5.62-8.29zm-10.64-6.6l-11.84 27.27 9.52 4.63 12.03-26.71-1.49-2.21-8.22-2.98zM89.14 41.94l15.79 7.68 11.79-27.1-18.39-6.71-9.19 26.13zm-3.93-30.7L75.08 35.13l12.76 6.2 9.18-26.04-11.81-4.05zM53.22 24.5l20.5 9.97 10.13-23.73-19.99-7.05L53.22 24.5zm-35.46 4.4c.36.28 20.95 7.51 21.12 8.02.08.14.12.3.1.46l-1.01 8.32 20.99 4.06 3.24-14.48L27.26 18.3l-9.5 10.6zM7.87 40l28.68 5.47.89-7.65-20.76-7.72L7.87 40zm20.46 11.88l1.01-6.32-22.58-4.31L1.8 46.8l26.53 5.08zm27.04 14.03l1.59-7.1-27.46-5.25-1.12 7.1 26.99 5.25zm20.95 4.2c.88-2.32 1.81-4.71 2.74-7.1l-20.71-3.95-1.6 7.17 19.57 3.88zm2 51.35c-3.25-11.98-3.94-25.03-7.09-29.26-.56-.31-1.22-.38-1.82-.18l-58.14 18.4c3.3 3.33 6.15 6.48 7.67 9.35h-.01c3.4 6.14 7.56 13.67 7.28 27.14l52.11-25.45zm2.57-1.27l51.47-25.11c-17.88 3.83-41.15 8.16-57.28-1.96.98 3.29 3.47 16.29 5.81 27.07zm57.2-21.51L82.76 125.7c4.79 11.63 13.4 19.07 18.31 22.58 16.61-25.08 26.54-40.5 37.02-49.6zm8.49-11.89L78.12 73.35c-1.83 4.67-3.28 8.48-3.86 9.99h-.01c-1.48 20.92 55.86 12.86 72.33 3.45zm5.56-7.86l-6.71-3.26-8.75-1.67-3.05 7.29 15.49 3.04c1.2-1.68 2.05-3.49 3.02-5.4zm3.78-9.04l-3.28-4.87-10.32-4.65-2.57 6.18 14.7 7.15c.46-1.23.99-2.5 1.47-3.81zm1.04-2.92l-1.82-.82 1.39 2.07.43-1.25zm5.85-15.1l-15.95 2.03 6.75 9.99 3.82 1.75c1.26-3.76 3.09-8.5 5.38-13.77zm-2.23 22.02c27.21-6.94 13.7 26.34 30.49-25.32l-17.43-6.27c-5.3 10.09-9.29 20.89-13.06 31.59zm15.44 15.33h.08c4.21-6.72-6.8-12.45-11.93-10.76-4.48 2.35-4.38 8.53 1.84 11.18l-.02-.08c.06.05 7.32 3.79 10.03-.34zm-15.35 22.62l13.78 14.09 7.15-6.9c-.02-.07-3.74-21.98-3.77-22.04-5.27 7.3-11.01 11.3-17.16 14.85zm-10.97 5.84l16.09 16.56 7.64-7.39-14.09-14.4c-3.08 1.69-6.56 3.45-9.64 5.23zm-6.08 5.06l16.5 16.97 4.64-4.48-16.25-16.73c-1.76 1.25-3.4 2.67-4.89 4.24zm-19.46 28.39l28.97-4.66 5.96-5.75-16.48-16.96c-6.08 6.64-12.51 16.77-18.45 27.37zm62.34-3.53l-.84-4.96-62.35 10.12c-.91 1.66-1.81 3.32-2.69 4.98l2.26.79c.09-.11 63.47-10.87 63.62-10.93zm-.25 2.89l-57.74 9.88 14.18 4.93c.33-.42 1.57-5.31 2.33-5.2l39.68-6.47 1.55-3.14zm1.24 2.74l-.21-1.5-.8 1.67 1.01-.17zm.78-12.51l2.84-.47 3.4-7.1-9.48-11.35 3.24 18.92zm.64 4.09l1.39-2.92-1.84.29.45 2.63zm.49 2.26l58.33-9.94-6.36-3.53-49.34 8.01-2.63 5.46zm53.39-2.82l4.45-4.13-57.43 9.84.49 2.85 52.49-8.56zm-31.3 9.49l-2.13-2.55-12.05 1.96 7.68 7.23 6.5-6.64zm45.07-11.02c-.7-1.25-1.24-2.59-1.63-3.97l-5.18.88-6.21 5.78c-.37.41-32.12 5.22-32.57 5.42l11.38 13.88 34.17-22.03.04.04zm8.36-5.33c-.03-.08-.07-.15-.11-.23l-8.42 1.43c.34 1.18.8 2.33 1.38 3.41l7.15-4.61zm2.57 3.04l.01-.05c-.31-.2-.6-.42-.88-.67l-7.27 4.69c1.23 1.56 2.72 2.89 4.41 3.94l3.73-7.91zm4.95 10.37c-.44-3.94-.8-7.07-1.01-9.01-.49-.04-.97-.12-1.45-.24l-3.77 7.99c1.96.85 4.1 1.23 6.23 1.26zm3.32-13.31c3.35-3.01.8-8.94-3.64-8.74l.01-.05c-9.65.75-3.71 15.02 3.63 8.79zm3.41 12.2c-2.02-3.72-3.68-6.68-4.49-8.2-.08.03-.17.06-.26.09.23 2.02.59 5.19 1.01 9.12 1.28-.19 2.54-.53 3.74-1.01zm7.03-5.35l-8.87-4.24-.1.08c.85 1.52 2.48 4.45 4.5 8.21 1.72-1.07 3.23-2.44 4.47-4.05zm19.45 9.28l-18.18-8.72c-.53.63-1.1 1.22-1.71 1.78L302.7 157l2.95-3.38zm8.36 4.07l-6.91-3.32-3.04 3.5 7.18 4.37 2.77-4.55zm2.7 7.89l-.45-6.8-.95-.46-2.83 4.67 4.23 2.59zm35.89-40.27c-10.73 1.35-21.87 2.75-32 4.05l-9.98 20.27 11.49 5.56 30.49-29.88zm11.19 9.23l-9.63-8.68-30.65 29.95 9.54 4.58 30.74-25.85zm-2.36 23.45l14.33-12.59-9.86-8.91-17.53 14.74 13.06 6.76zm23.58-4.23l-8.18-7.37-14.01 12.36 8.16 4.22 14.03-9.21zm7.31-4.85l-.17-7.35-6.08-3.36-8.16 7.21 8.33 7.52 6.08-4.02zm2.27-21.52l32.21-7.1-.29-2.27c-13.25.05-20.94.84-36.49 2.69.13.26 4.53 6.39 4.57 6.68zm.4 12.5l5.4 2.86 28.37-7.72-1.76-13.3-32.25 7.1.24 11.06zm18.33 13.15c-6.08-3.21-12.48-6.68-18.24-9.83l.45 19.06 17.79-9.23zm3.51-1.47l13.62-3.92-1.3-9.76-25.12 6.83c4.28 2.32 8.67 4.66 12.8 6.85zm13.35-2.29l-11.52 3.32c2.78 1.43 5.46 2.81 7.85 4.05l3.67-7.37zm11.91 14.65l-1.17-17.78-7.45 2.14c.54.4-4.19 9.09-4.34 9.64 6.79 3.63 8.01 3.4 12.96 6zm.69-32.72l9.68-2.62-6.68-9.67c-1.23-.13-2.48-.25-3.83-.35l.83 12.64zm12.62 9.26l-2.05-9.16-10.4 2.83.65 9.73 11.8-3.4zm13.23-13.32l-13.88 3.8 2.03 9.12 11.59-3.33.26-9.59zm20.75 33.4c-3.71-8.25-7.94-17.53-11.32-25.09l-8.25 2.37-.57 19.8 18.11 7.38 2.03-4.46zm1.04-4.65l2.89-18.47-12.16-2.03c2.85 6.25 6.16 13.56 9.27 20.5zm12.36-16.97l-8.1-1.32-3.16 20.19 6.83 3.22 4.43-22.09zm10.37 12.2l3.57-9.93-12.47-2.03-1.42 7.09 10.32 4.87zm11.42-8.66l-6.45-1.01-3.66 10.28 5.4 2.43 4.71-11.7zm2.99-7.25l-21.62-4.46-1.41 6.99 20.64 3.37 2.39-5.9zm.46-4.29l-6.48.12 6.48 1.33v-1.45zm10.26 11.76l-8.08-6.38-2.14 5.28c.08-.02 10.14 1.1 10.22 1.1zm2.13-4.84l-8.02-1.64 7.84 6.2.18-4.56zm21.76 8.84l-19.09-2.03 16.29 12.88 2.8-10.85zm1.09-4.18l-21.42-4.41-.2 4.92 20.96 2.31.66-2.82zm.57-2.77c.5-3.13.84-6.27 1.01-9.43l-34 .64h.01v2.03c10.95 2.26 22.04 4.52 32.98 6.76zm15.63 6.06l-14.75-2.99-.69 2.68 14.92 1.62.52-1.31zm.77-3.47l-3.61-12.22-10.36.17a90.29 90.29 0 01-.99 9.7l13.79 2.83 1.17-.48zm17.04-6.91v-5.71l-19.13.34 3.43 11.72 15.7-6.35zm16.94 14.45l4.05-17.35-30.25 12.17c9.47 1.91 18.33 3.66 26.2 5.18zm-2.77 11.68l2.11-8.8c-3.77-.75-9.08-1.81-15.37-3.09l-1.93 15.95 15.19-4.06zm8.77-7.53c-1.05-.2-4.14-.8-5.23-1.02l-1.91 8.11 5.66-1.5 1.48-5.59zm.74-2.77l2.5-9.24-5.56-1.59-2.31 9.8c1.2.23 4.21.79 5.37 1.03zm10.27 5.05c-2.81-.6-5.54-1.21-8.16-1.74l-1.15 4.2 9.31-2.46zm6.1-10.39l-6.08-1.72-1.47 8.87 5.48 1.23c.7-2.77 1.42-5.59 2.07-8.38zm.28-1.41c.91-4.33 1.58-8.7 2.03-13.1l-6.17-.29-1.93 11.65 6.07 1.74zm20.2-2.11l-16.78-.61c-.8 4.35-1.82 8.82-2.96 13.18 6.66 1.58 13.66 3.35 20.75 5.25a38.39 38.39 0 00-1.01-17.82zm16.56 9.63l-12.47-3.38.02.01c.5 4.09.39 8.24-.34 12.28 3.77 1.01 7.58 2.12 11.38 3.13l1.41-12.04zm1.04-8.96l-14.71-.59c.42 1.51.76 3.05 1.01 4.6l12.84 3.52.86-7.53zm1.2-9.91l-20.04-.95c1.56 2.81 2.81 5.78 3.74 8.84l15.29.6 1.01-8.49zm13.32 10.5l-13.06-.52-.92 7.85 12.97 3.52 1.01-10.85zm.2-1.42l.79-8.39-12.8-.61-1.01 8.48 13.02.52zm7.62-8.07l-5.46-.26-1.89 20.96 7.35 2.03c-.2-8.29-.29-17.64 0-22.73zm.1-1.44c.34-4.75 1.75-21 5.07-31.47l-4.29-1.01-17.52 7.07-2.88 24.49 19.62.92zm17.86 22.92l-15.06-3.75c.03 1.98.1 3.95.1 5.87l13.9 3.78 1.06-5.9zm3.53-20.45l-18.63-.88c-.2 3.67-.2 9.75-.13 16.03l15.34 3.83 3.42-18.98zm32.53 12.9l-23.95-12.52-7.09-.34-3.47 19.27 29.12 7.26 5.39-13.67zm7.6-19.39l-15.13-4.83-5.97 15.58 13.99 7.25 7.11-18zm10.76 3.41l-9.41-3-7.21 18.25 9.11 4.71 7.51-19.96zm11.41 2.37l-5.58-9.62-10.75 28.55 7.59 3.93c3.34-8.76 6.4-16.77 8.74-22.86zm4.48-11.63c.67-1.65 1.42-3.26 2.33-4.8l-15.63-4.43 10.14 17.42c1.71-4.46 2.86-7.43 3.16-8.19zm23.3 19.76l-20.4-1.15 11.28 19.4 9.12-18.25zm8.25-16.3l-26.34-7.46c-3.31 5.81-2.73 6.05-6.5 15.39l3.32 5.74 22.01 1.26 7.51-14.93zm5.96 15.66c-2.79-5.62-4.71-7.7-5.6-13.31l-6.35 12.64 11.95.67zm14.81-57.66l-17.02-17.33c-11.54 10.52-11.93 34.59-21.83 44.07a29.085 29.085 0 00-7.38 6.52l25.96 7.37c4.01-13.02 8.78-17.8 20.27-40.63zm-4.16 50.71l-5.62-2.03c.68 1.65.86 2.08 2.36 5.07.97-.91 2.08-1.93 3.26-3.04zm10.97-10.51l-13.67-10.14c-4.4 6.01-6.09 13.56-3.69 16.85l7.56 2.77c2.87-2.7 6.26-5.91 9.8-9.48zm33.76 10.07l-.05-3.15-14.61-23.18a355.659 355.659 0 01-26.34 27.32c.34.49 22.84 22.66 23 23.25l11.75-3.04 6.25-21.2zm9.03 18.48l-7.6-13.33-4.83 16.46 1.14 2.3 11.29-5.43zm3.3 5.82l-2.63-4.61-11.34 5.45 2.24 4.45 11.73-5.29zm22.17-15.46l-5.55-5.37-18.32 11.89 4.38 7.67c3.35-1.28 12.69-5.59 19.49-14.19zm3.89-6l-6.4-8.2-8.17-3.18-3.04 2.03 14.57 14.25c1.14-1.55 2.16-3.19 3.04-4.9zm1.94-6.84c7.96-4.12 9.7-20.01 11.75-26.98-7.46 2.14-11.31-.96-17.63-5l-4.64 18.47 10.52 13.51zm26.25 18.62l-8.32-18.6-14.48.95c-.58.49-1.16.93-1.68 1.29l15.2 19.46 9.28-3.1zm10.71-3.6l-1.92-21.84c-5.7.87-11 3.25-15.64 6.61l8.21 18.36 9.35-3.13zm.17-14.24l13.27-5.24-1.61-1.17c-3.96-.15-8.11-2.15-12.33-1.31l.67 7.72zm25.82 5.49c-3.56-3.43-7.3-6.66-11.21-9.69l-14.46 5.72 1.08 12.25c8.11-2.71 17.01-5.73 24.59-8.28zm17.33 21.63a97.005 97.005 0 00-15.08-19.38l-9.42 3.22 12.15 20.97 12.32-4.76.03-.05zm33.07-11.31l-30.81 11.97 2.32 3.04 26.77-3.35c1.34-4.05 2.35-8.4 1.72-11.66zm-7.8-11.69c-8.5-.54-15.82-.4-23.8-2.18-1.42.59-7.31 2.62-15.02 5.26 5.77 5.8 10.78 12.3 14.91 19.36l31.33-12.16c-2.32-4.21-6.68-9.15-7.42-10.28zm8.98-2.28l-2.06-14.6c-4.24 1.57-8.49 3.41-12.35 5.23l3.56 8.66c3.32.28 7.56.28 10.85.71zm6.03 4.48l19.06-22.88-2.09-.34.07.06c-6.81-1.17-15.34.69-23.73 3.63l2.19 15.52c2.28.9 2.72 1.96 4.5 4.01zm23.86 17.02l-21.37-17.76-1.54 1.92c3.57 4.21 10.49 12.29 17.22 20.14l5.69-4.3zm1.23-.9c.39-.13 8.74-7.03 9.11-6.37l-11.55-20.84-15.2 12.6 17.64 14.61zm16.73 7.47l-6.85-12.32-1.02-.1-7.77 5.87 3.48 2.88 12.16 3.67zm4.92-11.16l-9.99-1.01 7.01 12.81h.09l2.89-11.8zm1.59-6.7l-3.04-10.76c-.62-.04-3.91 1.37-4.28.47l-9.82-16.71-2.46-.26c0 .19.93 4.62.76 4.68-.05.12-.13.23-.23.31l-5.46 4.51 12.11 21.92 11.14 1.08 1.28-5.24zm12.97-27.22c-6.31.66-12.66.95-19 .85l7.43 26.17c.23-.01-1.25 5.22-1.22 5.37 8.41-2.7 5.65-4.83 12.63 1.15.06-4.54.1-19.13.16-33.54zm1.26-42.72l-20.45 14.38c.27.41 2.65 2.02 2.48 2.61l-.67 9.97c.26.12-5.19 5.18-5.26 5.36.61-.46 2.55 8.11 2.75 8.32 6.62.14 13.25-.15 19.83-.85.07-14.48.14-28.05.21-30.18l.07.04c.07-1.8.43-5.48 1.04-9.65zm.31-1.96c.83-5.3 2-11 3.34-14.43l-12.69-2.67-1.67 12.16c-.02.28-9.54 19.22-9.63 19.48l20.65-14.54zm10.03 74.89l-1.42-31.58-.02.04c-2.51.38-4.94.73-7.29 1.07-.11 14.93-.11 30.14-.11 34.19l8.84-3.72zm1.41-.53l32.48-13.41-7.15-24.33c-8.62 2.96-17.82 5.14-26.76 6.51.36 7.78 1.08 23.45 1.43 31.23zm39.81 11.62l-6.92-23.6-32.72 13.44 7.42 18.15c16.59-7.87 13.93-7.17 32.22-7.99zm9.93-36.91l-17.73 5.38 8.65 29.4 9.08-34.78zm15.18-4.59l-11.92 3.61-9.52 36.49 26.98-11.04c-1.21-9.8-3.06-19.51-5.54-29.06zm-6.16-18.18l-5.33 20.16 11.12-3.33a124.74 124.74 0 00-5.79-16.83zm13.91-14.28c-9.15-16.81-15.65-25.75-19.03-27.31-9.03-4.22-30.78-14.66-31.35-15.04-5.07 8.67-3.04 22.93-2.03 28 6.72 4.91 18.24 8.97 26.15 9.98 6.05.58 11.64 4.3 14.52 9.65l11.74-5.28zm-5.49-80.03l-31.78 8.3c-2.28 8.5-5.59 16.7-9.84 24.41 5.72 3.33 22.51 10.92 30.47 14.79 4.47 2.07 10.68 10.66 17.4 22.24l-.28-45.13-5.97-24.61z" fill-opacity=".08"/>
</svg>
